# xmcd
#
# Track frame offsets: 
#        150
#        20151
#        39369
#        60673
#        83988
#        93303
#        106951
#        126509
#        138534
#        143906
#        160582
#        177343
#
# Disc length: 2638 seconds
#
# Revision: 0
# Processed by: cddbd v1.5.2PL0 Copyright (c) Steve Scherf et al.
# Submitted via: ExactAudioCopyFreeDBPlugin 1.0
#
DISCID=a40a4c0c
DTITLE=Ashford and Simpson - Street Opera
DYEAR=1982
DGENRE=Soul
TTITLE0=Love It Away
TTITLE1=Make It Work Again
TTITLE2=Mighty Mighty Love
TTITLE3=I'll Take The Whole World On
TTITLE4=Street Opera: Part 1 - Working Man
TTITLE5=Street Opera: Part 2 - Who Will They Look To
TTITLE6=Street Opera: Part 3 - Street Corner
TTITLE7=Street Opera: Part 4 - Time Will Be Good Again
TTITLE8=Street Opera: Reprise - Working Man
TTITLE9=Street Corner (Single Version)
TTITLE10=Love It Away (Single Version)
TTITLE11=Street Corner (12" Long Version)
EXTD=
EXTT0=
EXTT1=
EXTT2=
EXTT3=
EXTT4=
EXTT5=
EXTT6=
EXTT7=
EXTT8=
EXTT9=
EXTT10=
EXTT11=
PLAYORDER=
